# Blender 4.5.3 LTS
# www.blender.org
mtllib Interseccion.mtl
o Cube.001
v -1.226763 0.873758 -4.582843
v -1.203459 0.873758 -4.768051
v -1.210961 0.873758 -4.743317
v -1.210961 0.873758 -4.422369
v -1.164160 0.873758 -4.268063
v -0.985879 0.873758 -4.001204
v -1.088159 0.873758 -4.125853
v -0.861251 0.873758 -3.898908
v -0.719064 0.873758 -3.822896
v -0.404334 0.873758 -3.760282
v -0.564782 0.873758 -3.776087
v 0.418095 0.873758 -4.582843
v 0.402292 0.873758 -4.743317
v 0.402292 0.873758 -4.422369
v 0.394790 0.873758 -4.768051
v -0.243886 0.873758 -3.776087
v 0.052583 0.873758 -3.898908
v -0.089604 0.873758 -3.822896
v 0.279491 0.873758 -4.125853
v 0.355491 0.873758 -4.268063
v 0.177211 0.873758 -4.001204
v -1.192588 -1.126242 -4.768051
v 0.177211 -1.126242 -3.965363
v 0.052583 -1.126242 -3.863067
v -0.089604 -1.126242 -3.787054
v 0.355491 -1.126242 -4.232221
v 0.383920 -1.126242 -4.768051
v 0.418095 -1.126242 -4.547002
v 0.402292 -1.126242 -4.707476
v 0.279491 -1.126242 -4.090011
v 0.402292 -1.126242 -4.386528
v -1.226763 -1.126242 -4.547002
v -1.210961 -1.126242 -4.386528
v -1.088159 -1.126242 -4.090011
v -1.164160 -1.126242 -4.232221
v -1.210961 -1.126242 -4.707476
v -0.719064 -1.126242 -3.787054
v -0.861251 -1.126242 -3.863067
v -0.243886 -1.126242 -3.740246
v -0.404334 -1.126242 -3.724440
v -0.564782 -1.126242 -3.740246
v -0.985879 -1.126242 -3.965363
vn -0.0000 1.0000 -0.0000
vn -0.0000 -1.0000 -0.0000
vn -0.0000 -0.0000 -1.0000
vn 0.9569 -0.0052 -0.2902
vn 0.9952 -0.0018 -0.0980
vn 0.9952 0.0018 0.0980
vn 0.9569 0.0052 0.2902
vn 0.8819 0.0084 0.4713
vn 0.7730 0.0114 0.6343
vn 0.6344 0.0139 0.7729
vn 0.4714 0.0158 0.8818
vn 0.2903 0.0171 0.9568
vn 0.0980 0.0178 0.9950
vn -0.0980 0.0178 0.9950
vn -0.2903 0.0171 0.9568
vn -0.4714 0.0158 0.8818
vn -0.6344 0.0139 0.7729
vn -0.7730 0.0114 0.6343
vn -0.8819 0.0084 0.4713
vn -0.9569 0.0052 0.2902
vn -0.9952 0.0018 0.0980
vn -0.9952 -0.0018 -0.0980
vn -0.9569 -0.0052 -0.2902
vt 0.668535 0.543210
vt 0.666560 0.523151
vt 0.668535 0.503092
vt 0.669473 0.500000
vt 0.869254 0.500000
vt 0.870192 0.503092
vt 0.872167 0.523151
vt 0.870192 0.543210
vt 0.864342 0.562499
vt 0.854842 0.580275
vt 0.842057 0.595856
vt 0.826478 0.608643
vt 0.808705 0.618144
vt 0.789420 0.623995
vt 0.769364 0.625971
vt 0.749308 0.623995
vt 0.730022 0.618144
vt 0.712249 0.608643
vt 0.696671 0.595856
vt 0.683886 0.580275
vt 0.674385 0.562499
vt 0.132105 0.500000
vt 0.329168 0.500000
vt 0.331465 0.507572
vt 0.333440 0.527631
vt 0.331465 0.547690
vt 0.325615 0.566979
vt 0.316114 0.584755
vt 0.303329 0.600336
vt 0.287751 0.613123
vt 0.269978 0.622625
vt 0.250692 0.628476
vt 0.230636 0.630451
vt 0.210580 0.628476
vt 0.191295 0.622625
vt 0.173522 0.613123
vt 0.157943 0.600336
vt 0.145158 0.584755
vt 0.135658 0.566979
vt 0.129808 0.547690
vt 0.127833 0.527631
vt 0.129808 0.507572
vt 0.625000 0.255746
vt 0.625000 0.455527
vt 0.375000 0.454168
vt 0.375000 0.257105
vt 0.000000 0.000000
s 0
usemtl Material
f 14/1/1 12/2/1 13/3/1 15/4/1 2/5/1 3/6/1 1/7/1 4/8/1 5/9/1 7/10/1 6/11/1 8/12/1 9/13/1 11/14/1 10/15/1 16/16/1 18/17/1 17/18/1 21/19/1 19/20/1 20/21/1
f 22/22/2 27/23/2 29/24/2 28/25/2 31/26/2 26/27/2 30/28/2 23/29/2 24/30/2 25/31/2 39/32/2 40/33/2 41/34/2 37/35/2 38/36/2 42/37/2 34/38/2 35/39/2 33/40/2 32/41/2 36/42/2
f 2/43/3 15/44/3 27/45/3 22/46/3
f 15/47/4 13/47/4 29/47/4 27/47/4
f 29/47/5 13/47/5 12/47/5 28/47/5
f 28/47/6 12/47/6 14/47/6 31/47/6
f 20/47/7 26/47/7 31/47/7 14/47/7
f 26/47/8 20/47/8 19/47/8 30/47/8
f 30/47/9 19/47/9 21/47/9 23/47/9
f 23/47/10 21/47/10 17/47/10 24/47/10
f 24/47/11 17/47/11 18/47/11 25/47/11
f 25/47/12 18/47/12 16/47/12 39/47/12
f 39/47/13 16/47/13 10/47/13 40/47/13
f 40/47/14 10/47/14 11/47/14 41/47/14
f 41/47/15 11/47/15 9/47/15 37/47/15
f 37/47/16 9/47/16 8/47/16 38/47/16
f 38/47/17 8/47/17 6/47/17 42/47/17
f 42/47/18 6/47/18 7/47/18 34/47/18
f 34/47/19 7/47/19 5/47/19 35/47/19
f 35/47/20 5/47/20 4/47/20 33/47/20
f 33/47/21 4/47/21 1/47/21 32/47/21
f 32/47/22 1/47/22 3/47/22 36/47/22
f 36/47/23 3/47/23 2/47/23 22/47/23
